<?xml version="1.0" encoding="UTF-8"?>
<svg width="172px" height="63px" viewBox="0 0 172 63" version="1.1" xmlns="http://www.w3.org/2000/svg" xmlns:xlink="http://www.w3.org/1999/xlink">
    <!-- Generator: Sketch 46.2 (44496) - http://www.bohemiancoding.com/sketch -->
    <title>logo_sausage</title>
    <desc>Created with Sketch.</desc>
    <defs></defs>
    <g id="Page-2" stroke="none" stroke-width="1" fill="none" fill-rule="evenodd">
        <g id="Mobile-Portrait-Copy-7" transform="translate(-94.000000, -111.000000)" fill-rule="nonzero" fill="#FFFFFF">
            <g id="logo_sausage" transform="translate(94.000000, 111.000000)">
                <path d="M46.261986,25.2748412 C44.9079767,25.7261776 44.4566402,27.1930211 44.4566402,27.1930211 L42.9897968,32.4962243 C40.225361,31.6499685 37.3480912,30.8601297 34.6400725,30.126708 L34.4144042,30.0702909 C33.173229,29.7882056 31.9884708,29.3368692 30.7472956,29.4497033 C29.7882056,29.5625374 28.9419498,30.4652103 28.7162816,31.3114662 C28.5470304,31.9884708 28.6598645,32.7218926 29.111201,33.3988972 C29.7882056,34.4708213 31.3678832,34.8093236 32.5526414,35.0914089 C32.8347267,35.147826 33.173229,35.204243 33.3988972,35.3170771 L56.9812267,41.9178727 C57.0376438,41.9178727 59.1250748,42.5948774 60.253416,41.9742898 C60.7047524,41.6922045 61.1560889,40.9023657 61.32534,40.3381951 C61.4945912,39.7740246 61.4381741,39.209854 61.1560889,38.7021005 C60.5919183,37.7994276 59.8020795,37.3480912 58.8994066,37.0095888 C58.7301554,36.9531718 58.5609043,36.9531718 58.3916531,36.8403377 C57.5453973,36.5018353 56.5298903,36.3325842 55.5143832,36.0504989 C52.9191987,35.2606601 51.0010188,34.7529066 48.3494171,34.0194849 L49.8726776,28.4906134 C50.4368482,26.4031823 48.0109148,24.6542535 46.261986,25.2748412 Z" id="Shape"></path>
                <path d="M36.6146694,25.162007 C38.194347,25.162007 39.8304416,24.3157512 41.1280339,23.6951636 L49.7598435,19.8023867 L55.4015491,28.9419498 C56.1913879,30.3523762 57.6018143,32.0448879 59.4635772,31.7063856 C62.1715959,31.2550491 61.2125059,28.4341963 60.4226671,26.6288505 C58.7301554,22.8489077 56.0785538,18.6176285 54.7245445,15.3454393 C54.273208,14.3299323 55.232298,12.4117524 55.4579662,11.3398283 C55.6836344,9.98581894 55.3451321,8.80106076 54.1603739,8.06763903 C53.3705351,7.55988552 51.6780234,7.27780024 50.7753505,7.72913669 C49.25209,8.57539253 48.3494171,13.2580082 48.3494171,13.2580082 C48.3494171,13.2580082 44.1181379,15.5711075 42.5948774,16.2481122 C40.225361,17.3764533 38.13793,18.6740456 35.8812477,20.140889 C34.7529066,20.9307278 33.3988972,21.8334007 33.9066507,23.4130783 C34.2451531,24.4285853 35.5427454,25.10559 36.6146694,25.162007 Z" id="Shape"></path>
                <path d="M93.0317256,41.4665363 C93.0317256,42.9333797 93.2573938,44.7951426 94.9499055,45.190062 C95.6833272,45.3593131 96.2474978,45.246479 96.8116683,44.8515596 C97.2065877,44.5694744 97.432256,44.2873891 97.6015071,43.8924697 C98.1656777,42.7077115 98.1092606,41.2972851 98.1092606,39.8304416 L97.9964265,29.111201 C97.9400095,25.10559 98.0528436,21.1563961 97.8835924,16.8122827 L97.8835924,16.5866145 C97.8271754,15.2890222 97.8835924,13.9914299 97.3194219,12.8066717 C96.9809195,11.9039988 96.3603319,11.3398283 95.4012419,11.3398283 C94.6114032,11.3398283 94.1036497,11.4526624 93.483062,12.016833 C92.6932232,12.8066717 92.6932232,14.9505199 92.7496403,16.2481122 L93.0317256,41.4665363 Z" id="Shape"></path>
                <path d="M82.7074043,29.111201 L85.4718401,29.2240351 L85.5846742,40.6766975 C85.5846742,41.5229533 85.6410912,44.174555 86.8258494,44.9079767 C87.1079347,45.1336449 87.8413564,45.190062 88.1798588,45.190062 C89.421034,45.190062 90.0416216,44.5130573 90.3801239,43.6668015 C90.7750433,42.3127921 90.8314604,41.7486215 90.8314604,40.3381951 C90.8314604,40.3381951 90.8314604,36.6710865 90.6057922,15.7967757 C90.6057922,15.5711075 90.6057922,13.5400935 90.2108728,12.8066717 C89.7595363,12.016833 89.0261146,11.5090795 88.0670246,11.5654965 C87.7849394,11.5654965 87.446437,11.6219136 87.1643517,11.6783306 C86.5437641,11.9039988 86.2052618,12.1860841 85.8667595,12.7502547 C85.7539253,13.03234 85.6410912,13.2580082 85.5846742,13.5400935 C85.415423,14.2735152 85.4718401,15.063354 85.4718401,15.7967757 L85.5282571,23.5823295 L83.4972431,23.5823295 C82.9330725,23.5259124 82.0303996,23.5823295 81.5226461,23.8644147 C80.2250538,24.4850024 80.1686368,25.8390117 80.2814709,26.8545187 C80.337888,28.6598645 81.6918973,29.111201 82.7074043,29.111201 Z" id="Shape"></path>
                <path d="M67.8133015,43.9488867 C68.0953868,43.9488867 68.321055,43.8924697 68.6031403,43.7796356 C69.7314814,43.3282991 70.5777372,42.2563751 71.311159,41.2972851 C71.4239931,41.184451 71.5368272,41.0151998 71.5932442,40.8459486 C72.0445807,40.2817781 72.4959171,39.6611905 72.8908365,39.0406029 C73.0036707,38.9277687 75.1475188,35.9376648 75.2039358,35.8248307 C75.2603529,35.9376648 75.9937746,36.6710865 77.2913669,38.8713517 C77.8555375,39.6611905 78.7017933,41.0716169 79.4352151,41.9178727 C80.2250538,42.8769627 80.8456415,43.6668015 81.7483144,43.6668015 L81.8047314,43.6668015 C82.5381531,43.6103844 83.1023237,43.1026309 83.4972431,42.2563751 C83.8921625,41.4101192 83.7229113,40.6766975 83.5536602,40.0561099 C83.440826,39.6611905 83.3279919,39.3791052 83.1587408,39.0970199 L83.0459066,38.8149346 L82.9330725,38.4764323 C82.8202384,38.194347 81.4662291,35.7119965 81.2969779,35.3170771 C80.6199732,34.132319 79.9993856,32.7783096 79.4352151,31.5371344 C78.8710445,30.4652103 78.1940398,29.3932863 78.1376228,28.152111 C78.0247886,26.7416846 78.0247886,25.2184241 77.9683716,23.7515806 C77.9683716,21.3256472 77.8555375,18.053458 77.6298693,15.6275246 C77.5734522,14.8376858 77.404201,14.104264 77.1785328,13.5400935 C77.0092816,13.088757 76.8400305,12.6374206 76.6143622,12.4117524 C76.4451111,12.2425012 76.2194429,12.1296671 75.9937746,12.016833 C75.5424382,11.8475818 75.31677,11.7911647 74.8654335,11.9604159 L74.7525994,12.016833 C74.1884288,12.1296671 73.6242583,12.3553353 73.39859,12.8066717 C73.2293389,13.1451741 73.0036707,13.5965105 72.8908365,13.9350129 C72.7780024,14.4427664 72.6651683,15.119771 72.6651683,15.7403587 C72.6087513,16.3045292 72.6087513,16.8122827 72.6087513,17.3764533 L72.6651683,24.9927559 C72.6651683,26.0082629 72.6651683,26.8545187 72.6087513,27.7571916 C72.5523342,28.3777792 72.383083,28.9419498 72.0445807,29.5625374 C71.4239931,30.2959592 67.0798798,38.3071811 66.6849604,38.6456835 C66.290041,39.4355222 65.7258704,40.3946122 65.6694534,41.4101192 C65.6694534,42.0871239 65.9515386,42.7641286 66.346458,43.215465 C66.9106286,43.6668015 67.2491309,44.0053038 67.8133015,43.9488867 Z" id="Shape"></path>
                <path d="M132.918584,34.6964895 C132.918584,34.7529066 133.369921,36.9531718 134.554679,37.6865935 C134.893181,37.8558447 135.288101,37.9686788 135.739437,37.9686788 C136.472859,37.9686788 137.262698,37.7430106 137.826868,37.2352571 C138.108953,36.8967547 138.278205,36.5018353 138.391039,36.163333 C138.447456,35.9376648 138.503873,35.7684136 138.503873,35.5427454 C138.56029,34.8093236 138.503873,34.188736 138.447456,33.5117314 C138.391039,33.0039778 138.221788,32.4962243 138.108953,31.9884708 L135.965105,21.8334007 C135.118849,17.8277897 134.216177,13.03234 133.20067,8.80106076 L133.144253,8.57539253 C132.80575,7.27780024 132.580082,5.98020795 131.84666,4.90828388 C131.338907,4.06202804 130.3234,3.66710865 129.36431,3.83635982 C128.630888,4.00561099 127.897466,4.23127921 127.44613,4.96470094 C126.825542,5.86737384 127.220462,8.01122197 127.502547,9.30881426 L132.918584,34.6964895 Z" id="Shape"></path>
                <path d="M105.048559,16.6430316 C105.443478,16.6430316 106.064066,16.5301975 108.207914,16.1352781 L110.746681,15.5711075 L113.059781,26.6288505 C112.608444,27.5315234 110.633847,31.2550491 109.956842,33.173229 C109.787591,33.7373996 109.505506,34.3015701 109.223421,34.9221578 C108.828501,35.8812477 108.377165,36.7839206 108.151497,37.8558447 C107.925828,38.7585176 107.982245,40.0561099 108.602833,40.9023657 C108.941335,41.4665363 109.505506,41.7486215 110.126094,41.8050386 C110.408179,41.8614557 110.690264,41.8050386 110.972349,41.7486215 C112.044274,41.5229533 113.059781,40.6766975 114.01887,39.209854 C114.808709,37.9686788 115.316463,36.6710865 115.824216,35.3170771 C116.049884,34.7529066 116.33197,34.132319 116.614055,33.5117314 C116.839723,33.0039778 117.121809,32.5526414 117.29106,31.9884708 C117.29106,31.9320538 117.347477,31.9320538 117.29106,31.8756367 C117.403894,31.8756367 117.460311,31.9884708 117.516728,32.0448879 C118.419401,32.7218926 119.265657,33.4553143 120.055495,34.2451531 C121.183837,35.2606601 122.368595,36.2761671 123.666187,37.2352571 C124.512443,37.8558447 125.979286,38.4764323 127.276879,38.194347 C127.841049,38.0815129 128.348803,37.7430106 128.743722,37.2352571 C129.307893,36.5018353 129.138642,35.3734942 128.800139,34.6964895 C128.066717,33.0039778 126.317789,31.4243003 124.963779,30.126708 C124.625277,29.7882056 124.117524,29.3368692 123.60977,28.9419498 C122.819931,28.2085281 122.030092,27.5879405 121.353088,27.0237699 C120.788917,26.5724334 119.604159,25.7261776 119.096406,25.3312582 C118.983571,24.9363388 118.701486,24.0336659 118.588652,23.5823295 L117.573145,18.8997138 C117.516728,18.5612115 116.89614,16.2481122 116.614055,14.2735152 C119.434908,13.7657617 121.014585,13.4272594 122.312178,12.9195059 C123.271268,12.5810035 123.891855,11.9039988 124.117524,11.1141601 C124.286775,10.3243213 124.061106,9.53448249 123.440519,8.91389487 C122.142927,7.50346847 120.450415,7.67271964 118.193733,8.12405608 L105.499895,10.7756577 C105.330644,10.7756577 105.104976,10.8320748 104.879307,10.8320748 C104.540805,10.8884918 104.315137,11.0013259 104.033052,11.1141601 C103.243213,11.4526624 102.622625,12.07325 102.284123,12.8066717 C101.889203,13.5400935 101.94562,14.4427664 102.453374,15.2326052 C103.073962,16.1916951 104.033052,16.6994486 105.048559,16.6430316 Z" id="Shape"></path>
                <path d="M170.435927,13.3144253 C172.241272,12.016833 172.297689,9.1395631 170.661595,6.82646379 C169.0255,4.56978155 166.204647,3.77994276 164.455719,5.07753505 C164.342885,5.19036917 164.23005,5.24678622 164.117216,5.35962033 C161.239946,2.76443575 157.629255,1.01550701 153.736478,0.338502337 C148.207606,-0.620587618 142.678735,0.620587618 138.108953,3.83635982 C136.980612,4.6261986 136.698527,6.20587618 137.488366,7.39063436 C138.278205,8.51897548 139.857882,8.80106076 141.04264,8.01122197 C144.484081,5.58528856 148.71536,4.6261986 152.890222,5.35962033 C154.751985,5.69812267 156.500914,6.31871029 158.080591,7.22138319 C154.4699,7.22138319 150.802791,8.97031193 148.320441,11.6783306 C146.740763,13.4272594 149.335948,16.0224439 150.915625,14.2735152 C153.397976,11.5654965 157.234335,10.042236 160.619359,11.3962453 C156.895833,14.4427664 154.695568,18.9561309 154.582734,23.9208318 C154.526317,26.2903482 158.193425,26.2903482 158.249842,23.9208318 C158.362677,19.5203014 160.562942,15.7403587 164.173633,13.3708423 C167.10732,19.0125479 166.712401,27.136604 159.152515,34.0759019 C152.326052,40.2817781 123.891855,57.8838996 82.368902,57.8838996 C64.4282781,57.8838996 47.6724124,55.5143832 33.9066507,51.0574358 C22.6232395,47.3903272 16.1352781,43.2718821 14.104264,41.4101192 C8.2368902,36.0504989 6.54437851,28.3777792 8.12405608,22.6232395 C9.81656777,26.7981017 13.3708423,30.4087933 17.3200362,31.9884708 C19.5203014,32.8347267 20.4793914,29.2804521 18.2791262,28.4341963 C15.3454393,27.3058552 12.7502547,24.3721683 11.4526624,21.1563961 C14.9505199,23.0181589 19.4074673,23.074576 23.2438271,21.8898178 C25.5005094,21.2128131 24.5414194,17.6585386 22.2847372,18.3355432 C18.7304626,19.4074673 14.2170981,19.3510503 11.5090795,16.6430316 C17.4892874,10.1550701 24.9363388,11.1705771 28.6034475,12.9195059 C29.8446227,13.5400935 31.3678832,13.03234 31.9884708,11.7347477 C32.6090585,10.4371554 32.1013049,8.97031193 30.8037127,8.34972431 C25.8390117,5.9237909 15.7967757,4.51336449 7.89838786,13.03234 C6.20587618,11.9039988 3.61069159,12.5810035 1.86176285,14.5556005 C0.112834112,16.8122827 7.58837437e-14,19.7459697 1.69251168,21.1563961 C2.08743108,21.4948984 2.53876753,21.7205666 3.04652103,21.8334007 C2.3130993,24.7670876 2.25668225,27.9828598 2.93368692,31.3114662 C4.00561099,36.6146694 6.82646379,41.6922045 10.6628236,45.190062 C13.5965105,47.8416636 21.0435619,52.242194 32.3269732,55.9093026 C46.7697395,60.5919183 63.6384393,62.9614347 82.368902,62.9614347 C101.042948,62.9614347 119.716993,59.4635772 136.303608,52.7499475 C149.335948,47.5031613 158.531928,41.4665363 162.424705,37.8558447 C169.871756,31.0293809 172.466941,21.6641496 169.702505,13.7093446 C169.928173,13.5965105 170.210258,13.4836764 170.435927,13.3144253 Z" id="Shape"></path>
            </g>
        </g>
    </g>
</svg>